<svg xmlns="http://www.w3.org/2000/svg" xmlns:xlink="http://www.w3.org/1999/xlink" width="1080" zoomAndPan="magnify" viewBox="0 0 810 809.999993" height="1080" preserveAspectRatio="xMidYMid meet" version="1.0"><defs><g/><clipPath id="f05790c13e"><path d="M 0.886719 0 L 810 0 L 810 810 L 0.886719 810 Z M 0.886719 0 " clip-rule="nonzero"/></clipPath><clipPath id="395363b9eb"><path d="M 39.136719 0 L 772.636719 0 C 782.78125 0 792.507812 4.03125 799.683594 11.203125 C 806.855469 18.375 810.886719 28.105469 810.886719 38.25 L 810.886719 771.75 C 810.886719 781.894531 806.855469 791.625 799.683594 798.796875 C 792.507812 805.96875 782.78125 810 772.636719 810 L 39.136719 810 C 28.992188 810 19.261719 805.96875 12.089844 798.796875 C 4.917969 791.625 0.886719 781.894531 0.886719 771.75 L 0.886719 38.25 C 0.886719 28.105469 4.917969 18.375 12.089844 11.203125 C 19.261719 4.03125 28.992188 0 39.136719 0 Z M 39.136719 0 " clip-rule="nonzero"/></clipPath></defs><g clip-path="url(#f05790c13e)"><g clip-path="url(#395363b9eb)"><path fill="#e4572e" d="M 0.886719 0 L 810.886719 0 L 810.886719 810 L 0.886719 810 Z M 0.886719 0 " fill-opacity="1" fill-rule="nonzero"/></g></g><g fill="#000000" fill-opacity="1"><g transform="translate(234.348858, 673.974275)"><g><path d="M 97.859375 -377.9375 C 85.160156 -375.195312 73.441406 -372.753906 62.703125 -370.609375 C 58.015625 -369.628906 53.375 -368.75 48.78125 -367.96875 C 44.1875 -367.1875 39.835938 -366.453125 35.734375 -365.765625 C 31.640625 -365.085938 27.976562 -364.550781 24.75 -364.15625 C 21.53125 -363.769531 19.140625 -363.578125 17.578125 -363.578125 C 14.253906 -363.578125 11.46875 -364.210938 9.21875 -365.484375 C 6.976562 -366.753906 5.859375 -369.34375 5.859375 -373.25 L 5.859375 -406.0625 C 5.859375 -409.769531 7.421875 -413.132812 10.546875 -416.15625 C 13.671875 -419.1875 18.554688 -420.703125 25.203125 -420.703125 L 388.765625 -420.703125 C 395.410156 -420.703125 400.296875 -419.1875 403.421875 -416.15625 C 406.546875 -413.132812 408.109375 -409.769531 408.109375 -406.0625 L 408.109375 -373.25 C 408.109375 -369.34375 406.984375 -366.753906 404.734375 -365.484375 C 402.492188 -364.210938 399.710938 -363.578125 396.390625 -363.578125 C 394.628906 -363.578125 392.1875 -363.769531 389.0625 -364.15625 C 385.9375 -364.550781 382.320312 -365.085938 378.21875 -365.765625 C 374.125 -366.453125 369.78125 -367.1875 365.1875 -367.96875 C 360.59375 -368.75 355.953125 -369.628906 351.265625 -370.609375 C 340.523438 -372.753906 328.804688 -375.195312 316.109375 -377.9375 L 316.109375 -40.140625 C 316.109375 -33.492188 315.519531 -27.679688 314.34375 -22.703125 C 313.175781 -17.722656 310.984375 -13.523438 307.765625 -10.109375 C 304.546875 -6.691406 300.101562 -4.148438 294.4375 -2.484375 C 288.769531 -0.828125 281.539062 0 272.75 0 L 142.09375 0 C 132.914062 0 125.441406 -0.878906 119.671875 -2.640625 C 113.910156 -4.398438 109.421875 -6.9375 106.203125 -10.25 C 102.984375 -13.570312 100.785156 -17.769531 99.609375 -22.84375 C 98.441406 -27.925781 97.859375 -33.882812 97.859375 -40.71875 Z M 291.21875 -384.078125 L 268.359375 -389.0625 L 268.359375 -24.609375 C 273.046875 -24.609375 276.851562 -24.753906 279.78125 -25.046875 C 282.71875 -25.335938 285.0625 -26.117188 286.8125 -27.390625 C 288.570312 -28.660156 289.742188 -30.515625 290.328125 -32.953125 C 290.921875 -35.398438 291.21875 -38.867188 291.21875 -43.359375 Z M 291.21875 -384.078125 "/></g></g></g><g fill="#ffffff" fill-opacity="1"><g transform="translate(163.451686, 584.249991)"><g><path d="M 97.859375 -377.9375 C 85.160156 -375.195312 73.441406 -372.753906 62.703125 -370.609375 C 58.015625 -369.628906 53.375 -368.75 48.78125 -367.96875 C 44.1875 -367.1875 39.835938 -366.453125 35.734375 -365.765625 C 31.640625 -365.085938 27.976562 -364.550781 24.75 -364.15625 C 21.53125 -363.769531 19.140625 -363.578125 17.578125 -363.578125 C 14.253906 -363.578125 11.46875 -364.210938 9.21875 -365.484375 C 6.976562 -366.753906 5.859375 -369.34375 5.859375 -373.25 L 5.859375 -406.0625 C 5.859375 -409.769531 7.421875 -413.132812 10.546875 -416.15625 C 13.671875 -419.1875 18.554688 -420.703125 25.203125 -420.703125 L 388.765625 -420.703125 C 395.410156 -420.703125 400.296875 -419.1875 403.421875 -416.15625 C 406.546875 -413.132812 408.109375 -409.769531 408.109375 -406.0625 L 408.109375 -373.25 C 408.109375 -369.34375 406.984375 -366.753906 404.734375 -365.484375 C 402.492188 -364.210938 399.710938 -363.578125 396.390625 -363.578125 C 394.628906 -363.578125 392.1875 -363.769531 389.0625 -364.15625 C 385.9375 -364.550781 382.320312 -365.085938 378.21875 -365.765625 C 374.125 -366.453125 369.78125 -367.1875 365.1875 -367.96875 C 360.59375 -368.75 355.953125 -369.628906 351.265625 -370.609375 C 340.523438 -372.753906 328.804688 -375.195312 316.109375 -377.9375 L 316.109375 -40.140625 C 316.109375 -33.492188 315.519531 -27.679688 314.34375 -22.703125 C 313.175781 -17.722656 310.984375 -13.523438 307.765625 -10.109375 C 304.546875 -6.691406 300.101562 -4.148438 294.4375 -2.484375 C 288.769531 -0.828125 281.539062 0 272.75 0 L 142.09375 0 C 132.914062 0 125.441406 -0.878906 119.671875 -2.640625 C 113.910156 -4.398438 109.421875 -6.9375 106.203125 -10.25 C 102.984375 -13.570312 100.785156 -17.769531 99.609375 -22.84375 C 98.441406 -27.925781 97.859375 -33.882812 97.859375 -40.71875 Z M 291.21875 -384.078125 L 268.359375 -389.0625 L 268.359375 -24.609375 C 273.046875 -24.609375 276.851562 -24.753906 279.78125 -25.046875 C 282.71875 -25.335938 285.0625 -26.117188 286.8125 -27.390625 C 288.570312 -28.660156 289.742188 -30.515625 290.328125 -32.953125 C 290.921875 -35.398438 291.21875 -38.867188 291.21875 -43.359375 Z M 291.21875 -384.078125 "/></g></g></g></svg>