<svg xmlns="http://www.w3.org/2000/svg" xmlns:xlink="http://www.w3.org/1999/xlink" width="1080" zoomAndPan="magnify" viewBox="0 0 810 404.99999" height="540" preserveAspectRatio="xMidYMid meet" version="1.0"><defs><g/><clipPath id="a150092cca"><path d="M 171 85 L 201 85 L 201 114 L 171 114 Z M 171 85 " clip-rule="nonzero"/></clipPath><clipPath id="702621668e"><path d="M 171.84375 99.628906 L 186.078125 85.398438 L 200.3125 99.628906 L 186.078125 113.863281 Z M 171.84375 99.628906 " clip-rule="nonzero"/></clipPath><clipPath id="5468496ff3"><path d="M 171 56 L 201 56 L 201 86 L 171 86 Z M 171 56 " clip-rule="nonzero"/></clipPath><clipPath id="f3d1b5dc67"><path d="M 171.84375 71.164062 L 186.078125 56.929688 L 200.3125 71.164062 L 186.078125 85.398438 Z M 171.84375 71.164062 " clip-rule="nonzero"/></clipPath><clipPath id="99be0ab0aa"><path d="M 171 28 L 201 28 L 201 57 L 171 57 Z M 171 28 " clip-rule="nonzero"/></clipPath><clipPath id="f8131223ba"><path d="M 171.84375 42.695312 L 186.078125 28.464844 L 200.3125 42.695312 L 186.078125 56.929688 Z M 171.84375 42.695312 " clip-rule="nonzero"/></clipPath><clipPath id="6866b0ec72"><path d="M 171 0 L 201 0 L 201 29 L 171 29 Z M 171 0 " clip-rule="nonzero"/></clipPath><clipPath id="4bed9f7c98"><path d="M 171.84375 14.230469 L 186.078125 -0.00390625 L 200.3125 14.230469 L 186.078125 28.464844 Z M 171.84375 14.230469 " clip-rule="nonzero"/></clipPath><clipPath id="d6eda98a08"><path d="M 609 85 L 639 85 L 639 114 L 609 114 Z M 609 85 " clip-rule="nonzero"/></clipPath><clipPath id="4ea9865d48"><path d="M 609.554688 99.628906 L 623.785156 85.398438 L 638.019531 99.628906 L 623.785156 113.863281 Z M 609.554688 99.628906 " clip-rule="nonzero"/></clipPath><clipPath id="0ee325fa42"><path d="M 609 56 L 639 56 L 639 86 L 609 86 Z M 609 56 " clip-rule="nonzero"/></clipPath><clipPath id="b124315dc8"><path d="M 609.554688 71.164062 L 623.785156 56.929688 L 638.019531 71.164062 L 623.785156 85.398438 Z M 609.554688 71.164062 " clip-rule="nonzero"/></clipPath><clipPath id="d37071f9c5"><path d="M 609 28 L 639 28 L 639 57 L 609 57 Z M 609 28 " clip-rule="nonzero"/></clipPath><clipPath id="601205a0ca"><path d="M 609.554688 42.695312 L 623.785156 28.464844 L 638.019531 42.695312 L 623.785156 56.929688 Z M 609.554688 42.695312 " clip-rule="nonzero"/></clipPath><clipPath id="2831611156"><path d="M 609 0 L 639 0 L 639 29 L 609 29 Z M 609 0 " clip-rule="nonzero"/></clipPath><clipPath id="8fd49477ec"><path d="M 609.554688 14.230469 L 623.785156 -0.00390625 L 638.019531 14.230469 L 623.785156 28.464844 Z M 609.554688 14.230469 " clip-rule="nonzero"/></clipPath><clipPath id="79cebbb2d7"><path d="M 160.132812 100.875 L 650 100.875 L 650 256.121094 L 160.132812 256.121094 Z M 160.132812 100.875 " clip-rule="nonzero"/></clipPath><clipPath id="14f4757b87"><path d="M 185.960938 100.875 L 624.039062 100.875 C 630.890625 100.875 637.460938 103.597656 642.304688 108.441406 C 647.148438 113.285156 649.867188 119.851562 649.867188 126.703125 L 649.867188 230.292969 C 649.867188 237.144531 647.148438 243.714844 642.304688 248.558594 C 637.460938 253.402344 630.890625 256.121094 624.039062 256.121094 L 185.960938 256.121094 C 179.109375 256.121094 172.539062 253.402344 167.695312 248.558594 C 162.851562 243.714844 160.132812 237.144531 160.132812 230.292969 L 160.132812 126.703125 C 160.132812 119.851562 162.851562 113.285156 167.695312 108.441406 C 172.539062 103.597656 179.109375 100.875 185.960938 100.875 Z M 185.960938 100.875 " clip-rule="nonzero"/></clipPath><clipPath id="ab8a5917eb"><path d="M 167 104 L 205 104 L 205 142 L 167 142 Z M 167 104 " clip-rule="nonzero"/></clipPath><clipPath id="0d3b9c6432"><path d="M 183.582031 97.324219 L 212.019531 120.78125 L 188.566406 149.21875 L 160.128906 125.761719 Z M 183.582031 97.324219 " clip-rule="nonzero"/></clipPath><clipPath id="ac84a6fe9d"><path d="M 197.800781 109.054688 C 189.949219 102.574219 178.332031 103.691406 171.855469 111.542969 C 165.378906 119.398438 166.492188 131.015625 174.347656 137.492188 C 182.199219 143.96875 193.816406 142.851562 200.292969 135 C 206.769531 127.148438 205.65625 115.53125 197.800781 109.054688 Z M 197.800781 109.054688 " clip-rule="nonzero"/></clipPath><clipPath id="ed6f744fb8"><path d="M 172 109 L 200 109 L 200 137 L 172 137 Z M 172 109 " clip-rule="nonzero"/></clipPath><clipPath id="39d5e8af84"><path d="M 184.277344 104.539062 L 204.804688 121.472656 L 187.875 142.003906 L 167.34375 125.070312 Z M 184.277344 104.539062 " clip-rule="nonzero"/></clipPath><clipPath id="a0843039c8"><path d="M 194.542969 113.007812 C 188.871094 108.332031 180.484375 109.136719 175.808594 114.804688 C 171.132812 120.472656 171.9375 128.859375 177.609375 133.539062 C 183.277344 138.214844 191.664062 137.40625 196.339844 131.738281 C 201.015625 126.070312 200.210938 117.683594 194.542969 113.007812 Z M 194.542969 113.007812 " clip-rule="nonzero"/></clipPath><clipPath id="7ad6b861d1"><path d="M 174 113 L 198 113 L 198 134 L 174 134 Z M 174 113 " clip-rule="nonzero"/></clipPath><clipPath id="936e229f3e"><path d="M 177.171875 113.15625 L 197.699219 130.089844 L 194.65625 133.777344 L 174.125 116.84375 Z M 177.171875 113.15625 " clip-rule="nonzero"/></clipPath><clipPath id="01b2a5bb37"><path d="M 605 108 L 643 108 L 643 145 L 605 145 Z M 605 108 " clip-rule="nonzero"/></clipPath><clipPath id="48ba11c158"><path d="M 602.101562 140.980469 L 609.324219 104.832031 L 645.472656 112.054688 L 638.25 148.203125 Z M 602.101562 140.980469 " clip-rule="nonzero"/></clipPath><clipPath id="829631b635"><path d="M 605.710938 122.90625 C 603.71875 132.886719 610.191406 142.597656 620.175781 144.59375 C 630.15625 146.585938 639.867188 140.109375 641.859375 130.128906 C 643.855469 120.148438 637.378906 110.4375 627.398438 108.445312 C 617.414062 106.449219 607.707031 112.925781 605.710938 122.90625 Z M 605.710938 122.90625 " clip-rule="nonzero"/></clipPath><clipPath id="ba76a86b59"><path d="M 610 113 L 638 113 L 638 140 L 610 140 Z M 610 113 " clip-rule="nonzero"/></clipPath><clipPath id="831474f4fb"><path d="M 608.128906 136.960938 L 613.34375 110.863281 L 639.441406 116.078125 L 634.226562 142.171875 Z M 608.128906 136.960938 " clip-rule="nonzero"/></clipPath><clipPath id="633add8c1b"><path d="M 610.738281 123.910156 C 609.296875 131.117188 613.972656 138.125 621.179688 139.566406 C 628.386719 141.007812 635.394531 136.332031 636.835938 129.125 C 638.273438 121.917969 633.601562 114.910156 626.394531 113.46875 C 619.1875 112.027344 612.175781 116.703125 610.738281 123.910156 Z M 610.738281 123.910156 " clip-rule="nonzero"/></clipPath><clipPath id="20fe9208fd"><path d="M 619 113 L 629 113 L 629 141 L 619 141 Z M 619 113 " clip-rule="nonzero"/></clipPath><clipPath id="83d09ddfe9"><path d="M 619.082031 139.148438 L 624.296875 113.050781 L 628.988281 113.988281 L 623.773438 140.085938 Z M 619.082031 139.148438 " clip-rule="nonzero"/></clipPath></defs><g clip-path="url(#a150092cca)"><g clip-path="url(#702621668e)"><path fill="#5669a7" d="M 171.84375 99.628906 L 186.078125 85.398438 L 200.3125 99.628906 L 186.078125 113.863281 Z M 171.84375 99.628906 " fill-opacity="1" fill-rule="nonzero"/></g></g><g clip-path="url(#5468496ff3)"><g clip-path="url(#f3d1b5dc67)"><path fill="#5669a7" d="M 171.84375 71.164062 L 186.078125 56.929688 L 200.3125 71.164062 L 186.078125 85.398438 Z M 171.84375 71.164062 " fill-opacity="1" fill-rule="nonzero"/></g></g><g clip-path="url(#99be0ab0aa)"><g clip-path="url(#f8131223ba)"><path fill="#5669a7" d="M 171.84375 42.695312 L 186.078125 28.464844 L 200.3125 42.695312 L 186.078125 56.929688 Z M 171.84375 42.695312 " fill-opacity="1" fill-rule="nonzero"/></g></g><g clip-path="url(#6866b0ec72)"><g clip-path="url(#4bed9f7c98)"><path fill="#5669a7" d="M 171.84375 14.230469 L 186.078125 -0.00390625 L 200.3125 14.230469 L 186.078125 28.464844 Z M 171.84375 14.230469 " fill-opacity="1" fill-rule="nonzero"/></g></g><g clip-path="url(#d6eda98a08)"><g clip-path="url(#4ea9865d48)"><path fill="#5669a7" d="M 609.554688 99.628906 L 623.785156 85.398438 L 638.019531 99.628906 L 623.785156 113.863281 Z M 609.554688 99.628906 " fill-opacity="1" fill-rule="nonzero"/></g></g><g clip-path="url(#0ee325fa42)"><g clip-path="url(#b124315dc8)"><path fill="#5669a7" d="M 609.554688 71.164062 L 623.785156 56.929688 L 638.019531 71.164062 L 623.785156 85.398438 Z M 609.554688 71.164062 " fill-opacity="1" fill-rule="nonzero"/></g></g><g clip-path="url(#d37071f9c5)"><g clip-path="url(#601205a0ca)"><path fill="#5669a7" d="M 609.554688 42.695312 L 623.785156 28.464844 L 638.019531 42.695312 L 623.785156 56.929688 Z M 609.554688 42.695312 " fill-opacity="1" fill-rule="nonzero"/></g></g><g clip-path="url(#2831611156)"><g clip-path="url(#8fd49477ec)"><path fill="#5669a7" d="M 609.554688 14.230469 L 623.785156 -0.00390625 L 638.019531 14.230469 L 623.785156 28.464844 Z M 609.554688 14.230469 " fill-opacity="1" fill-rule="nonzero"/></g></g><g clip-path="url(#79cebbb2d7)"><g clip-path="url(#14f4757b87)"><path fill="#e4572e" d="M 160.132812 100.875 L 650.128906 100.875 L 650.128906 256.121094 L 160.132812 256.121094 Z M 160.132812 100.875 " fill-opacity="1" fill-rule="nonzero"/></g></g><g fill="#3b3224" fill-opacity="1"><g transform="translate(286.961121, 243.204489)"><g><path d="M 14.625 -64.265625 C 12.5 -63.734375 10.53125 -63.257812 8.71875 -62.84375 C 7.925781 -62.664062 7.144531 -62.492188 6.375 -62.328125 C 5.613281 -62.171875 4.890625 -62.023438 4.203125 -61.890625 C 3.515625 -61.765625 2.894531 -61.65625 2.34375 -61.5625 C 1.800781 -61.476562 1.398438 -61.4375 1.140625 -61.4375 C 0.578125 -61.414062 0.101562 -61.507812 -0.28125 -61.71875 C -0.664062 -61.925781 -0.867188 -62.359375 -0.890625 -63.015625 L -1.046875 -68.546875 C -1.066406 -69.179688 -0.816406 -69.757812 -0.296875 -70.28125 C 0.210938 -70.8125 1.023438 -71.09375 2.140625 -71.125 L 63.5 -72.953125 C 64.613281 -72.984375 65.441406 -72.75 65.984375 -72.25 C 66.535156 -71.757812 66.820312 -71.195312 66.84375 -70.5625 L 67 -65.03125 C 67.019531 -64.375 66.84375 -63.929688 66.46875 -63.703125 C 66.09375 -63.472656 65.625 -63.347656 65.0625 -63.328125 C 64.757812 -63.316406 64.34375 -63.335938 63.8125 -63.390625 C 63.289062 -63.441406 62.679688 -63.515625 61.984375 -63.609375 C 61.285156 -63.703125 60.546875 -63.804688 59.765625 -63.921875 C 58.984375 -64.035156 58.195312 -64.160156 57.40625 -64.296875 C 55.582031 -64.609375 53.597656 -64.96875 51.453125 -65.375 L 53.140625 -8.375 C 53.171875 -7.25 53.101562 -6.257812 52.9375 -5.40625 C 52.769531 -4.5625 52.421875 -3.84375 51.890625 -3.25 C 51.359375 -2.65625 50.617188 -2.203125 49.671875 -1.890625 C 48.734375 -1.585938 47.519531 -1.414062 46.03125 -1.375 L 23.96875 -0.71875 C 22.425781 -0.664062 21.160156 -0.773438 20.171875 -1.046875 C 19.191406 -1.316406 18.421875 -1.722656 17.859375 -2.265625 C 17.304688 -2.816406 16.914062 -3.515625 16.6875 -4.359375 C 16.46875 -5.203125 16.34375 -6.203125 16.3125 -7.359375 Z M 47.234375 -66.28125 L 43.34375 -67 L 45.171875 -5.5 C 45.960938 -5.519531 46.601562 -5.5625 47.09375 -5.625 C 47.59375 -5.6875 47.988281 -5.832031 48.28125 -6.0625 C 48.570312 -6.289062 48.757812 -6.613281 48.84375 -7.03125 C 48.925781 -7.445312 48.957031 -8.03125 48.9375 -8.78125 Z M 47.234375 -66.28125 "/></g></g><g transform="translate(356.814147, 241.126412)"><g><path d="M 2.640625 -64.21875 C 2.609375 -65.363281 2.675781 -66.367188 2.84375 -67.234375 C 3.019531 -68.097656 3.378906 -68.828125 3.921875 -69.421875 C 4.472656 -70.015625 5.238281 -70.472656 6.21875 -70.796875 C 7.195312 -71.128906 8.476562 -71.316406 10.0625 -71.359375 L 32.109375 -72.015625 C 34.015625 -72.078125 35.476562 -71.835938 36.5 -71.296875 C 37.519531 -70.765625 38.25 -70.085938 38.6875 -69.265625 C 39.125 -68.441406 39.375 -67.554688 39.4375 -66.609375 C 39.5 -65.671875 39.546875 -64.804688 39.578125 -64.015625 L 41.203125 -9.25 C 41.222656 -8.488281 41.175781 -7.644531 41.0625 -6.71875 C 40.957031 -5.789062 40.65625 -4.914062 40.15625 -4.09375 C 39.65625 -3.269531 38.867188 -2.5625 37.796875 -1.96875 C 36.722656 -1.375 35.234375 -1.046875 33.328125 -0.984375 L 12.171875 -0.359375 C 10.585938 -0.316406 9.296875 -0.425781 8.296875 -0.6875 C 7.296875 -0.957031 6.503906 -1.363281 5.921875 -1.90625 C 5.347656 -2.457031 4.945312 -3.15625 4.71875 -4 C 4.5 -4.851562 4.375 -5.859375 4.34375 -7.015625 Z M 35.34375 -64.78125 C 35.320312 -65.507812 35.253906 -66.082031 35.140625 -66.5 C 35.023438 -66.925781 34.816406 -67.242188 34.515625 -67.453125 C 34.210938 -67.660156 33.8125 -67.78125 33.3125 -67.8125 C 32.820312 -67.851562 32.179688 -67.863281 31.390625 -67.84375 L 33.25 -5.15625 C 34.039062 -5.175781 34.679688 -5.21875 35.171875 -5.28125 C 35.671875 -5.34375 36.066406 -5.484375 36.359375 -5.703125 C 36.648438 -5.929688 36.835938 -6.253906 36.921875 -6.671875 C 37.003906 -7.085938 37.035156 -7.671875 37.015625 -8.421875 Z M 35.34375 -64.78125 "/></g></g><g transform="translate(402.839035, 239.757205)"><g><path d="M 2.640625 -64.21875 C 2.609375 -65.363281 2.675781 -66.367188 2.84375 -67.234375 C 3.019531 -68.097656 3.378906 -68.828125 3.921875 -69.421875 C 4.472656 -70.015625 5.238281 -70.472656 6.21875 -70.796875 C 7.195312 -71.128906 8.476562 -71.316406 10.0625 -71.359375 L 32.109375 -72.015625 C 34.378906 -72.085938 36.632812 -72.015625 38.875 -71.796875 C 41.125 -71.578125 43.289062 -71.164062 45.375 -70.5625 C 47.457031 -69.96875 49.394531 -69.171875 51.1875 -68.171875 C 52.976562 -67.171875 54.546875 -65.90625 55.890625 -64.375 C 57.242188 -62.851562 58.320312 -61.054688 59.125 -58.984375 C 59.925781 -56.910156 60.367188 -54.507812 60.453125 -51.78125 C 60.578125 -47.726562 60.125 -44.289062 59.09375 -41.46875 C 58.070312 -38.65625 56.648438 -36.3125 54.828125 -34.4375 C 53.003906 -32.570312 50.863281 -31.125 48.40625 -30.09375 C 45.945312 -29.0625 43.359375 -28.289062 40.640625 -27.78125 L 41.203125 -9.25 C 41.222656 -8.488281 41.175781 -7.644531 41.0625 -6.71875 C 40.957031 -5.789062 40.65625 -4.914062 40.15625 -4.09375 C 39.65625 -3.269531 38.867188 -2.5625 37.796875 -1.96875 C 36.722656 -1.375 35.234375 -1.046875 33.328125 -0.984375 L 12.171875 -0.359375 C 10.585938 -0.316406 9.296875 -0.425781 8.296875 -0.6875 C 7.296875 -0.957031 6.503906 -1.363281 5.921875 -1.90625 C 5.347656 -2.457031 4.945312 -3.15625 4.71875 -4 C 4.5 -4.851562 4.375 -5.859375 4.34375 -7.015625 Z M 53.5 -50.84375 C 53.445312 -52.820312 53.128906 -54.628906 52.546875 -56.265625 C 51.972656 -57.910156 51.125 -59.34375 50 -60.5625 C 48.882812 -61.78125 47.457031 -62.773438 45.71875 -63.546875 C 43.976562 -64.328125 41.921875 -64.832031 39.546875 -65.0625 L 40.453125 -34.359375 C 42.816406 -34.796875 44.835938 -35.515625 46.515625 -36.515625 C 48.203125 -37.515625 49.566406 -38.742188 50.609375 -40.203125 C 51.648438 -41.660156 52.40625 -43.296875 52.875 -45.109375 C 53.351562 -46.921875 53.5625 -48.832031 53.5 -50.84375 Z M 35.3125 -65.53125 C 34.644531 -65.539062 33.957031 -65.539062 33.25 -65.53125 C 32.539062 -65.53125 31.941406 -65.523438 31.453125 -65.515625 L 33.25 -5.15625 C 34.039062 -5.175781 34.679688 -5.21875 35.171875 -5.28125 C 35.671875 -5.34375 36.066406 -5.484375 36.359375 -5.703125 C 36.648438 -5.929688 36.835938 -6.253906 36.921875 -6.671875 C 37.003906 -7.085938 37.035156 -7.671875 37.015625 -8.421875 Z M 35.3125 -65.53125 "/></g></g></g><g fill="#3b3224" fill-opacity="1"><g transform="translate(461.371224, 238.015916)"><g><path d="M 14.515625 -54.46875 C 14.773438 -58.070312 15.65625 -61.097656 17.15625 -63.546875 C 18.664062 -66.003906 20.566406 -67.984375 22.859375 -69.484375 C 25.160156 -70.984375 27.738281 -72.070312 30.59375 -72.75 C 33.445312 -73.425781 36.34375 -73.8125 39.28125 -73.90625 C 41.6875 -73.976562 44.046875 -73.945312 46.359375 -73.8125 C 48.671875 -73.6875 50.800781 -73.519531 52.75 -73.3125 C 54.695312 -73.113281 56.382812 -72.898438 57.8125 -72.671875 C 59.238281 -72.453125 60.28125 -72.285156 60.9375 -72.171875 C 61.332031 -72.085938 61.535156 -71.914062 61.546875 -71.65625 C 61.546875 -71.582031 61.519531 -71.382812 61.46875 -71.0625 L 60.828125 -67.46875 C 60.773438 -67.226562 60.691406 -67.082031 60.578125 -67.03125 C 60.460938 -66.988281 60.351562 -66.960938 60.25 -66.953125 C 58.800781 -66.910156 57.554688 -66.625 56.515625 -66.09375 C 55.472656 -65.570312 54.617188 -64.851562 53.953125 -63.9375 C 53.285156 -63.03125 52.789062 -61.960938 52.46875 -60.734375 C 52.144531 -59.503906 51.9375 -58.179688 51.84375 -56.765625 L 49.953125 -20.71875 C 49.785156 -17.820312 49.128906 -15.066406 47.984375 -12.453125 C 46.835938 -9.847656 45.203125 -7.554688 43.078125 -5.578125 C 40.960938 -3.609375 38.335938 -2.015625 35.203125 -0.796875 C 32.078125 0.410156 28.46875 1.078125 24.375 1.203125 C 21.644531 1.285156 19.003906 1.234375 16.453125 1.046875 C 13.910156 0.859375 11.59375 0.613281 9.5 0.3125 C 7.414062 0.0078125 5.617188 -0.289062 4.109375 -0.59375 C 2.597656 -0.894531 1.515625 -1.117188 0.859375 -1.265625 C 0.453125 -1.359375 0.25 -1.535156 0.25 -1.796875 C 0.25 -1.828125 0.273438 -2.007812 0.328125 -2.34375 L 1.046875 -6.109375 C 1.109375 -6.359375 1.195312 -6.503906 1.3125 -6.546875 C 1.425781 -6.597656 1.53125 -6.625 1.625 -6.625 C 3.070312 -6.675781 4.410156 -6.929688 5.640625 -7.390625 C 6.867188 -7.859375 7.925781 -8.597656 8.8125 -9.609375 C 9.707031 -10.628906 10.4375 -11.9375 11 -13.53125 C 11.5625 -15.132812 11.925781 -17.09375 12.09375 -19.40625 Z M 31.3125 -3.703125 C 33.800781 -4.367188 35.941406 -5.3125 37.734375 -6.53125 C 39.523438 -7.757812 41 -9.148438 42.15625 -10.703125 C 43.320312 -12.253906 44.203125 -13.890625 44.796875 -15.609375 C 45.390625 -17.328125 45.722656 -18.988281 45.796875 -20.59375 L 47.703125 -56.640625 C 47.765625 -57.953125 47.929688 -59.207031 48.203125 -60.40625 C 48.484375 -61.601562 48.878906 -62.6875 49.390625 -63.65625 C 49.910156 -64.632812 50.578125 -65.472656 51.390625 -66.171875 C 52.210938 -66.878906 53.195312 -67.378906 54.34375 -67.671875 C 52.019531 -67.492188 50.164062 -67.039062 48.78125 -66.3125 C 47.40625 -65.59375 46.351562 -64.695312 45.625 -63.625 C 44.894531 -62.5625 44.40625 -61.398438 44.15625 -60.140625 C 43.914062 -58.890625 43.765625 -57.679688 43.703125 -56.515625 L 41.75 -20.484375 C 41.664062 -18.972656 41.375 -17.425781 40.875 -15.84375 C 40.382812 -14.257812 39.6875 -12.738281 38.78125 -11.28125 C 37.882812 -9.820312 36.8125 -8.4375 35.5625 -7.125 C 34.3125 -5.8125 32.894531 -4.671875 31.3125 -3.703125 Z M 31.3125 -3.703125 "/></g></g></g><g clip-path="url(#ab8a5917eb)"><g clip-path="url(#0d3b9c6432)"><g clip-path="url(#ac84a6fe9d)"><path fill="#3b3224" d="M 183.582031 97.324219 L 212.019531 120.78125 L 188.566406 149.21875 L 160.128906 125.761719 Z M 183.582031 97.324219 " fill-opacity="1" fill-rule="nonzero"/></g></g></g><g clip-path="url(#ed6f744fb8)"><g clip-path="url(#39d5e8af84)"><g clip-path="url(#a0843039c8)"><path fill="#cdc2ae" d="M 184.277344 104.539062 L 204.804688 121.472656 L 187.875 142.003906 L 167.34375 125.070312 Z M 184.277344 104.539062 " fill-opacity="1" fill-rule="nonzero"/></g></g></g><g clip-path="url(#7ad6b861d1)"><g clip-path="url(#936e229f3e)"><path fill="#3b3224" d="M 177.171875 113.15625 L 197.703125 130.089844 L 194.65625 133.777344 L 174.125 116.84375 Z M 177.171875 113.15625 " fill-opacity="1" fill-rule="nonzero"/></g></g><g fill="#f2efea" fill-opacity="1"><g transform="translate(216.755701, 134.308479)"><g><path d="M 18.0625 -63.390625 C 15.914062 -62.972656 13.925781 -62.609375 12.09375 -62.296875 C 11.300781 -62.148438 10.515625 -62.019531 9.734375 -61.90625 C 8.960938 -61.789062 8.226562 -61.679688 7.53125 -61.578125 C 6.832031 -61.484375 6.207031 -61.410156 5.65625 -61.359375 C 5.113281 -61.304688 4.710938 -61.28125 4.453125 -61.28125 C 3.890625 -61.300781 3.421875 -61.421875 3.046875 -61.640625 C 2.671875 -61.867188 2.492188 -62.3125 2.515625 -62.96875 L 2.640625 -68.5 C 2.660156 -69.132812 2.941406 -69.703125 3.484375 -70.203125 C 4.023438 -70.703125 4.851562 -70.9375 5.96875 -70.90625 L 67.34375 -69.421875 C 68.457031 -69.398438 69.273438 -69.125 69.796875 -68.59375 C 70.316406 -68.070312 70.566406 -67.492188 70.546875 -66.859375 L 70.421875 -61.328125 C 70.398438 -60.671875 70.195312 -60.238281 69.8125 -60.03125 C 69.425781 -59.820312 68.953125 -59.722656 68.390625 -59.734375 C 68.085938 -59.742188 67.671875 -59.785156 67.140625 -59.859375 C 66.617188 -59.941406 66.015625 -60.050781 65.328125 -60.1875 C 64.640625 -60.320312 63.910156 -60.460938 63.140625 -60.609375 C 62.367188 -60.765625 61.585938 -60.929688 60.796875 -61.109375 C 58.992188 -61.515625 57.03125 -61.976562 54.90625 -62.5 L 53.53125 -5.484375 C 53.5 -4.359375 53.375 -3.378906 53.15625 -2.546875 C 52.9375 -1.710938 52.546875 -1.015625 51.984375 -0.453125 C 51.421875 0.109375 50.660156 0.519531 49.703125 0.78125 C 48.742188 1.039062 47.519531 1.148438 46.03125 1.109375 L 23.984375 0.578125 C 22.441406 0.546875 21.1875 0.367188 20.21875 0.046875 C 19.25 -0.273438 18.5 -0.722656 17.96875 -1.296875 C 17.4375 -1.867188 17.082031 -2.582031 16.90625 -3.4375 C 16.726562 -4.300781 16.65625 -5.3125 16.6875 -6.46875 Z M 50.71875 -63.640625 L 46.890625 -64.578125 L 45.390625 -3.0625 C 46.179688 -3.039062 46.828125 -3.046875 47.328125 -3.078125 C 47.828125 -3.117188 48.226562 -3.242188 48.53125 -3.453125 C 48.832031 -3.660156 49.035156 -3.96875 49.140625 -4.375 C 49.253906 -4.789062 49.316406 -5.375 49.328125 -6.125 Z M 50.71875 -63.640625 "/></g></g><g transform="translate(286.619126, 136.001234)"><g><path d="M 49.625 -12.265625 C 48.351562 -11.597656 47.0625 -11.050781 45.75 -10.625 C 44.4375 -10.195312 43.082031 -9.847656 41.6875 -9.578125 L 41.609375 -5.875 C 41.578125 -4.820312 41.429688 -3.875 41.171875 -3.03125 C 40.921875 -2.195312 40.503906 -1.488281 39.921875 -0.90625 C 39.335938 -0.332031 38.566406 0.101562 37.609375 0.40625 C 36.660156 0.71875 35.476562 0.859375 34.0625 0.828125 L 12.171875 0.296875 C 10.585938 0.253906 9.300781 0.078125 8.3125 -0.234375 C 7.332031 -0.554688 6.566406 -1.003906 6.015625 -1.578125 C 5.472656 -2.160156 5.113281 -2.878906 4.9375 -3.734375 C 4.757812 -4.597656 4.6875 -5.609375 4.71875 -6.765625 L 6.09375 -63.984375 C 6.125 -65.128906 6.25 -66.128906 6.46875 -66.984375 C 6.6875 -67.835938 7.082031 -68.546875 7.65625 -69.109375 C 8.238281 -69.671875 9.023438 -70.085938 10.015625 -70.359375 C 11.015625 -70.640625 12.304688 -70.757812 13.890625 -70.71875 L 35.9375 -70.1875 C 38.300781 -70.125 40.625 -69.867188 42.90625 -69.421875 C 45.1875 -68.972656 47.347656 -68.285156 49.390625 -67.359375 C 51.429688 -66.429688 53.300781 -65.21875 55 -63.71875 C 56.695312 -62.226562 58.15625 -60.40625 59.375 -58.25 C 60.59375 -56.09375 61.519531 -53.585938 62.15625 -50.734375 C 62.789062 -47.890625 63.066406 -44.617188 62.984375 -40.921875 C 62.898438 -37.753906 62.628906 -34.890625 62.171875 -32.328125 C 61.710938 -29.765625 61.113281 -27.453125 60.375 -25.390625 C 59.632812 -23.335938 58.757812 -21.523438 57.75 -19.953125 C 56.738281 -18.378906 55.628906 -16.992188 54.421875 -15.796875 L 63.984375 -2.515625 C 64.304688 -2.035156 64.460938 -1.582031 64.453125 -1.15625 C 64.441406 -0.664062 64.253906 -0.242188 63.890625 0.109375 C 63.535156 0.460938 63.160156 0.75 62.765625 0.96875 L 59.75 2.640625 C 59.519531 2.765625 59.273438 2.863281 59.015625 2.9375 C 58.765625 3.007812 58.507812 3.039062 58.25 3.03125 C 57.882812 3.03125 57.523438 2.910156 57.171875 2.671875 C 56.828125 2.429688 56.507812 2.023438 56.21875 1.453125 Z M 55.984375 -40.203125 C 56.054688 -43.171875 55.859375 -45.910156 55.390625 -48.421875 C 54.929688 -50.941406 54.179688 -53.171875 53.140625 -55.109375 C 52.097656 -57.046875 50.734375 -58.660156 49.046875 -59.953125 C 47.367188 -61.253906 45.347656 -62.164062 42.984375 -62.6875 L 41.84375 -16.0625 C 44.238281 -16.53125 46.304688 -17.441406 48.046875 -18.796875 C 49.796875 -20.160156 51.238281 -21.878906 52.375 -23.953125 C 53.519531 -26.035156 54.390625 -28.445312 54.984375 -31.1875 C 55.578125 -33.9375 55.910156 -36.941406 55.984375 -40.203125 Z M 38.796875 -63.53125 C 38.128906 -63.582031 37.441406 -63.625 36.734375 -63.65625 C 36.023438 -63.6875 35.425781 -63.707031 34.9375 -63.71875 L 33.46875 -3.34375 C 34.257812 -3.320312 34.90625 -3.328125 35.40625 -3.359375 C 35.90625 -3.398438 36.304688 -3.523438 36.609375 -3.734375 C 36.910156 -3.953125 37.113281 -4.265625 37.21875 -4.671875 C 37.332031 -5.078125 37.394531 -5.65625 37.40625 -6.40625 Z M 38.796875 -63.53125 "/></g></g><g transform="translate(351.983207, 137.584972)"><g><path d="M 35.234375 -70.203125 C 35.828125 -70.191406 36.335938 -70.101562 36.765625 -69.9375 C 37.191406 -69.78125 37.570312 -69.515625 37.90625 -69.140625 C 38.25 -68.773438 38.5625 -68.289062 38.84375 -67.6875 C 39.125 -67.09375 39.421875 -66.359375 39.734375 -65.484375 L 60.96875 -4.3125 C 61.113281 -3.84375 61.210938 -3.425781 61.265625 -3.0625 C 61.328125 -2.695312 61.351562 -2.335938 61.34375 -1.984375 C 61.320312 -0.796875 60.945312 0.0664062 60.21875 0.609375 C 59.5 1.160156 58.742188 1.425781 57.953125 1.40625 L 29.90625 0.71875 C 29.050781 0.695312 28.335938 0.570312 27.765625 0.34375 C 27.191406 0.125 26.707031 -0.132812 26.3125 -0.4375 C 25.925781 -0.75 25.632812 -1.070312 25.4375 -1.40625 C 25.238281 -1.738281 25.113281 -2.039062 25.0625 -2.3125 L 24.546875 -4.0625 L 10.640625 -4.40625 L 10.265625 -2.921875 C 10.160156 -2.421875 10.035156 -1.984375 9.890625 -1.609375 C 9.742188 -1.234375 9.566406 -0.90625 9.359375 -0.625 C 9.160156 -0.351562 8.882812 -0.148438 8.53125 -0.015625 C 8.1875 0.117188 7.734375 0.179688 7.171875 0.171875 L 2.078125 0.046875 C 1.023438 0.0234375 0.507812 -0.394531 0.53125 -1.21875 C 0.539062 -1.519531 0.609375 -1.875 0.734375 -2.28125 C 0.859375 -2.695312 1.023438 -3.179688 1.234375 -3.734375 L 23.421875 -65.78125 C 23.941406 -67.320312 24.523438 -68.460938 25.171875 -69.203125 C 25.828125 -69.941406 26.726562 -70.332031 27.875 -70.375 Z M 12.328125 -10.4375 L 23.015625 -10.1875 L 18 -29.640625 Z M 35.640625 -64.4375 C 35.398438 -65.144531 35.09375 -65.59375 34.71875 -65.78125 C 34.34375 -65.976562 33.691406 -66.085938 32.765625 -66.109375 L 31.03125 -66.140625 L 52.90625 -2.875 L 55.28125 -2.8125 C 55.875 -2.800781 56.28125 -2.914062 56.5 -3.15625 C 56.726562 -3.394531 56.71875 -3.851562 56.46875 -4.53125 Z M 35.640625 -64.4375 "/></g></g></g><g fill="#f2efea" fill-opacity="1"><g transform="translate(407.310294, 138.92552)"><g><path d="M 45.03125 -39.828125 L 52.5 -65.71875 C 52.644531 -66.3125 52.785156 -66.851562 52.921875 -67.34375 C 53.066406 -67.832031 53.25 -68.253906 53.46875 -68.609375 C 53.695312 -68.972656 53.988281 -69.25 54.34375 -69.4375 C 54.695312 -69.632812 55.171875 -69.722656 55.765625 -69.703125 L 60.765625 -69.578125 C 61.253906 -69.566406 61.644531 -69.457031 61.9375 -69.25 C 62.226562 -69.050781 62.367188 -68.71875 62.359375 -68.25 C 62.347656 -67.625 62.160156 -66.804688 61.796875 -65.796875 L 39.609375 -3.703125 C 39.085938 -2.191406 38.476562 -1.046875 37.78125 -0.265625 C 37.082031 0.503906 36.023438 0.875 34.609375 0.84375 L 27.734375 0.671875 C 26.972656 0.648438 26.347656 0.484375 25.859375 0.171875 C 25.378906 -0.128906 24.972656 -0.503906 24.640625 -0.953125 C 24.304688 -1.410156 24.035156 -1.90625 23.828125 -2.4375 C 23.628906 -2.976562 23.457031 -3.492188 23.3125 -3.984375 L 2.078125 -65.203125 C 1.765625 -66.078125 1.617188 -66.859375 1.640625 -67.546875 C 1.660156 -68.703125 2.039062 -69.5625 2.78125 -70.125 C 3.519531 -70.6875 4.285156 -70.957031 5.078125 -70.9375 L 33.109375 -70.25 C 33.929688 -70.226562 34.628906 -70.117188 35.203125 -69.921875 C 35.773438 -69.734375 36.253906 -69.457031 36.640625 -69.09375 C 37.035156 -68.738281 37.359375 -68.320312 37.609375 -67.84375 C 37.859375 -67.363281 38.054688 -66.835938 38.203125 -66.265625 Z M 34.40625 -64.53125 C 34.257812 -65.082031 34.003906 -65.476562 33.640625 -65.71875 C 33.285156 -65.96875 32.832031 -66.097656 32.28125 -66.109375 L 30.046875 -66.171875 L 40.71875 -24.828125 L 42.828125 -32.0625 Z M 34.40625 -64.53125 "/></g></g><g transform="translate(468.076146, 140.397845)"><g><path d="M 42.5625 -45.1875 L 41.578125 -5.078125 C 44.796875 -5.460938 47.738281 -5.800781 50.40625 -6.09375 C 51.539062 -6.238281 52.675781 -6.367188 53.8125 -6.484375 C 54.945312 -6.609375 55.992188 -6.722656 56.953125 -6.828125 C 57.921875 -6.941406 58.75 -7.023438 59.4375 -7.078125 C 60.132812 -7.128906 60.613281 -7.148438 60.875 -7.140625 C 61.4375 -7.128906 61.910156 -7.007812 62.296875 -6.78125 C 62.691406 -6.5625 62.882812 -6.117188 62.875 -5.453125 L 62.765625 -0.90625 C 62.742188 -0.3125 62.578125 0.234375 62.265625 0.734375 C 61.960938 1.242188 61.25 1.484375 60.125 1.453125 L 12.0625 0.296875 C 10.519531 0.253906 9.265625 0.078125 8.296875 -0.234375 C 7.328125 -0.554688 6.566406 -1.003906 6.015625 -1.578125 C 5.472656 -2.160156 5.113281 -2.878906 4.9375 -3.734375 C 4.757812 -4.597656 4.6875 -5.609375 4.71875 -6.765625 L 6.0625 -62.296875 C 6.101562 -64.171875 6.351562 -65.671875 6.8125 -66.796875 C 7.269531 -67.929688 7.898438 -68.789062 8.703125 -69.375 C 9.503906 -69.96875 10.460938 -70.34375 11.578125 -70.5 C 12.691406 -70.65625 13.921875 -70.71875 15.265625 -70.6875 L 59.96875 -69.609375 C 61.09375 -69.578125 61.804688 -69.300781 62.109375 -68.78125 C 62.410156 -68.269531 62.550781 -67.695312 62.53125 -67.0625 L 62.453125 -63.5625 C 62.429688 -62.894531 62.242188 -62.457031 61.890625 -62.25 C 61.535156 -62.039062 61.078125 -61.945312 60.515625 -61.96875 C 60.191406 -61.96875 59.691406 -62.007812 59.015625 -62.09375 C 58.347656 -62.175781 57.566406 -62.285156 56.671875 -62.421875 C 55.785156 -62.566406 54.832031 -62.710938 53.8125 -62.859375 C 52.800781 -63.015625 51.785156 -63.191406 50.765625 -63.390625 C 48.398438 -63.804688 45.820312 -64.28125 43.03125 -64.8125 L 42.734375 -52.25 L 61.125 -51.796875 C 61.820312 -51.785156 62.160156 -51.4375 62.140625 -50.75 L 62.015625 -45.796875 C 62.003906 -45.078125 61.648438 -44.722656 60.953125 -44.734375 Z M 38.84375 -65.609375 L 35 -66.234375 L 33.5 -4.1875 L 37.359375 -4.578125 Z M 38.84375 -65.609375 "/></g></g><g transform="translate(532.797465, 141.96601)"><g><path d="M 6.09375 -63.984375 C 6.125 -65.128906 6.25 -66.128906 6.46875 -66.984375 C 6.6875 -67.835938 7.082031 -68.546875 7.65625 -69.109375 C 8.238281 -69.671875 9.023438 -70.085938 10.015625 -70.359375 C 11.015625 -70.640625 12.304688 -70.757812 13.890625 -70.71875 L 35.9375 -70.1875 C 37.84375 -70.144531 39.289062 -69.828125 40.28125 -69.234375 C 41.269531 -68.648438 41.960938 -67.929688 42.359375 -67.078125 C 42.753906 -66.234375 42.957031 -65.335938 42.96875 -64.390625 C 42.976562 -63.453125 42.972656 -62.585938 42.953125 -61.796875 L 41.609375 -5.78125 C 43.878906 -6.039062 45.992188 -6.285156 47.953125 -6.515625 C 48.773438 -6.585938 49.609375 -6.671875 50.453125 -6.765625 C 51.296875 -6.859375 52.070312 -6.945312 52.78125 -7.03125 C 53.5 -7.113281 54.132812 -7.171875 54.6875 -7.203125 C 55.25 -7.242188 55.664062 -7.265625 55.9375 -7.265625 C 56.488281 -7.242188 56.9375 -7.125 57.28125 -6.90625 C 57.625 -6.6875 57.789062 -6.242188 57.78125 -5.578125 L 57.671875 -1.03125 C 57.648438 -0.4375 57.378906 0.109375 56.859375 0.609375 C 56.335938 1.109375 55.515625 1.34375 54.390625 1.3125 L 12.0625 0.296875 C 10.519531 0.253906 9.265625 0.078125 8.296875 -0.234375 C 7.328125 -0.554688 6.566406 -1.003906 6.015625 -1.578125 C 5.472656 -2.160156 5.113281 -2.878906 4.9375 -3.734375 C 4.757812 -4.597656 4.6875 -5.609375 4.71875 -6.765625 Z M 38.78125 -62.78125 C 38.789062 -63.507812 38.75 -64.085938 38.65625 -64.515625 C 38.570312 -64.953125 38.382812 -65.28125 38.09375 -65.5 C 37.800781 -65.71875 37.410156 -65.859375 36.921875 -65.921875 C 36.429688 -65.984375 35.789062 -66.023438 35 -66.046875 L 33.515625 -4.828125 L 37.390625 -5.328125 Z M 38.78125 -62.78125 "/></g></g></g><g clip-path="url(#01b2a5bb37)"><g clip-path="url(#48ba11c158)"><g clip-path="url(#829631b635)"><path fill="#3b3224" d="M 602.101562 140.980469 L 609.324219 104.832031 L 645.472656 112.054688 L 638.25 148.203125 Z M 602.101562 140.980469 " fill-opacity="1" fill-rule="nonzero"/></g></g></g><g clip-path="url(#ba76a86b59)"><g clip-path="url(#831474f4fb)"><g clip-path="url(#633add8c1b)"><path fill="#cdc2ae" d="M 608.128906 136.960938 L 613.34375 110.863281 L 639.441406 116.078125 L 634.226562 142.171875 Z M 608.128906 136.960938 " fill-opacity="1" fill-rule="nonzero"/></g></g></g><g clip-path="url(#20fe9208fd)"><g clip-path="url(#83d09ddfe9)"><path fill="#3b3224" d="M 619.082031 139.148438 L 624.296875 113.050781 L 628.988281 113.988281 L 623.773438 140.085938 Z M 619.082031 139.148438 " fill-opacity="1" fill-rule="nonzero"/></g></g></svg>